REM DIRINDEX 1\2,1\3,1\4,1\5,1\6
REM DIRNAME cjc091,folder01,folder02,folder03,folder04,folder05
TITLE ""
FILE "CD2-04.mp3" MP3
  TRACK 01 AUDIO
    TITLE "6:cjc091_1569"
    INDEX 01 00:00:00
  TRACK 02 AUDIO
    TITLE "0:"
    INDEX 01 00:02:10
  TRACK 03 AUDIO
    TITLE "2:cjc091_1570"
    INDEX 01 00:03:35
  TRACK 04 AUDIO
    TITLE "0:"
    INDEX 01 00:05:05
  TRACK 05 AUDIO
    TITLE "3:cjc091_1571"
    INDEX 01 00:05:24
  TRACK 06 AUDIO
    TITLE "0:"
    INDEX 01 00:07:31
  TRACK 07 AUDIO
    TITLE "4:cjc091_1572"
    INDEX 01 00:07:45
  TRACK 08 AUDIO
    TITLE "0:"
    INDEX 01 00:11:15
  TRACK 09 AUDIO
    TITLE "2:cjc091_1573"
    INDEX 01 00:12:26
  TRACK 10 AUDIO
    TITLE "0:"
    INDEX 01 00:13:69
  TRACK 11 AUDIO
    TITLE "3:cjc091_1574"
    INDEX 01 00:14:17
  TRACK 12 AUDIO
    TITLE "0:"
    INDEX 01 00:16:34
  TRACK 13 AUDIO
    TITLE "4:cjc091_1575"
    INDEX 01 00:16:57
  TRACK 14 AUDIO
    TITLE "0:"
    INDEX 01 00:19:22
  TRACK 15 AUDIO
    TITLE "2:cjc091_1576"
    INDEX 01 00:20:30
  TRACK 16 AUDIO
    TITLE "0:"
    INDEX 01 00:21:53
  TRACK 17 AUDIO
    TITLE "3:cjc091_1577"
    INDEX 01 00:21:68
  TRACK 18 AUDIO
    TITLE "0:"
    INDEX 01 00:24:16
  TRACK 19 AUDIO
    TITLE "4:cjc091_1578"
    INDEX 01 00:24:43
  TRACK 20 AUDIO
    TITLE "0:"
    INDEX 01 00:28:00
  TRACK 21 AUDIO
    TITLE "2:cjc091_1579"
    INDEX 01 00:29:09
  TRACK 22 AUDIO
    TITLE "0:"
    INDEX 01 00:30:38
  TRACK 23 AUDIO
    TITLE "3:cjc091_1580"
    INDEX 01 00:30:42
  TRACK 24 AUDIO
    TITLE "0:"
    INDEX 01 00:32:05
  TRACK 25 AUDIO
    TITLE "4:cjc091_1581"
    INDEX 01 00:32:27
  TRACK 26 AUDIO
    TITLE "0:"
    INDEX 01 00:36:05
  TRACK 27 AUDIO
    TITLE "2:cjc091_1582"
    INDEX 01 00:37:20
  TRACK 28 AUDIO
    TITLE "0:"
    INDEX 01 00:38:55
  TRACK 29 AUDIO
    TITLE "3:cjc091_1583"
    INDEX 01 00:38:73
  TRACK 30 AUDIO
    TITLE "0:"
    INDEX 01 00:40:58
  TRACK 31 AUDIO
    TITLE "4:cjc091_1584"
    INDEX 01 00:41:04
  TRACK 32 AUDIO
    TITLE "0:"
    INDEX 01 00:43:46
  TRACK 33 AUDIO
    TITLE "2:cjc091_1585"
    INDEX 01 00:44:56
  TRACK 34 AUDIO
    TITLE "0:"
    INDEX 01 00:46:00
  TRACK 35 AUDIO
    TITLE "3:cjc091_1586"
    INDEX 01 00:46:15
  TRACK 36 AUDIO
    TITLE "0:"
    INDEX 01 00:47:36
  TRACK 37 AUDIO
    TITLE "4:cjc091_1587"
    INDEX 01 00:47:52
  TRACK 38 AUDIO
    TITLE "0:"
    INDEX 01 00:49:35
  TRACK 39 AUDIO
    TITLE "2:cjc091_1588"
    INDEX 01 00:50:44
  TRACK 40 AUDIO
    TITLE "0:"
    INDEX 01 00:52:16
  TRACK 41 AUDIO
    TITLE "3:cjc091_1589"
    INDEX 01 00:52:30
  TRACK 42 AUDIO
    TITLE "0:"
    INDEX 01 00:53:53
  TRACK 43 AUDIO
    TITLE "4:cjc091_1590"
    INDEX 01 00:54:09
  TRACK 44 AUDIO
    TITLE "0:"
    INDEX 01 00:57:27
  TRACK 45 AUDIO
    TITLE "2:cjc091_1591"
    INDEX 01 00:58:50
  TRACK 46 AUDIO
    TITLE "0:"
    INDEX 01 01:00:23
  TRACK 47 AUDIO
    TITLE "3:cjc091_1592"
    INDEX 01 01:00:27
  TRACK 48 AUDIO
    TITLE "0:"
    INDEX 01 01:01:40
  TRACK 49 AUDIO
    TITLE "4:cjc091_1593"
    INDEX 01 01:01:62
  TRACK 50 AUDIO
    TITLE "0:"
    INDEX 01 01:05:07
  TRACK 51 AUDIO
    TITLE "2:cjc091_1594"
    INDEX 01 01:06:22
  TRACK 52 AUDIO
    TITLE "0:"
    INDEX 01 01:07:59
  TRACK 53 AUDIO
    TITLE "3:cjc091_1595"
    INDEX 01 01:07:74
  TRACK 54 AUDIO
    TITLE "0:"
    INDEX 01 01:10:41
  TRACK 55 AUDIO
    TITLE "4:cjc091_1596"
    INDEX 01 01:10:63
  TRACK 56 AUDIO
    TITLE "0:"
    INDEX 01 01:13:63
  TRACK 57 AUDIO
    TITLE "2:cjc091_1597"
    INDEX 01 01:14:70
  TRACK 58 AUDIO
    TITLE "0:"
    INDEX 01 01:16:03
  TRACK 59 AUDIO
    TITLE "3:cjc091_1598"
    INDEX 01 01:16:12
  TRACK 60 AUDIO
    TITLE "0:"
    INDEX 01 01:17:35
  TRACK 61 AUDIO
    TITLE "4:cjc091_1599"
    INDEX 01 01:17:55
  TRACK 62 AUDIO
    TITLE "0:"
    INDEX 01 01:20:20
  TRACK 63 AUDIO
    TITLE "2:cjc091_1600"
    INDEX 01 01:21:31
  TRACK 64 AUDIO
    TITLE "0:"
    INDEX 01 01:22:60
  TRACK 65 AUDIO
    TITLE "3:cjc091_1601"
    INDEX 01 01:22:62
  TRACK 66 AUDIO
    TITLE "0:"
    INDEX 01 01:24:00
  TRACK 67 AUDIO
    TITLE "4:cjc091_1602"
    INDEX 01 01:24:16
  TRACK 68 AUDIO
    TITLE "0:"
    INDEX 01 01:26:46
  TRACK 69 AUDIO
    TITLE "2:cjc091_1603"
    INDEX 01 01:27:53
  TRACK 70 AUDIO
    TITLE "0:"
    INDEX 01 01:29:72
  TRACK 71 AUDIO
    TITLE "3:cjc091_1604"
    INDEX 01 01:30:05
  TRACK 72 AUDIO
    TITLE "0:"
    INDEX 01 01:32:21
  TRACK 73 AUDIO
    TITLE "4:cjc091_1605"
    INDEX 01 01:32:39
  TRACK 74 AUDIO
    TITLE "0:"
    INDEX 01 01:36:54
  TRACK 75 AUDIO
    TITLE "2:cjc091_1606"
    INDEX 01 01:37:60
  TRACK 76 AUDIO
    TITLE "0:"
    INDEX 01 01:39:25
  TRACK 77 AUDIO
    TITLE "3:cjc091_1607"
    INDEX 01 01:39:33
  TRACK 78 AUDIO
    TITLE "0:"
    INDEX 01 01:40:52
  TRACK 79 AUDIO
    TITLE "4:cjc091_1608"
    INDEX 01 01:40:66
  TRACK 80 AUDIO
    TITLE "0:"
    INDEX 01 01:44:24
  TRACK 81 AUDIO
    TITLE "2:cjc091_1609"
    INDEX 01 01:45:38
  TRACK 82 AUDIO
    TITLE "0:"
    INDEX 01 01:46:74
  TRACK 83 AUDIO
    TITLE "3:cjc091_1610"
    INDEX 01 01:47:21
  TRACK 84 AUDIO
    TITLE "0:"
    INDEX 01 01:49:28
  TRACK 85 AUDIO
    TITLE "4:cjc091_1611"
    INDEX 01 01:49:49
  TRACK 86 AUDIO
    TITLE "0:"
    INDEX 01 01:54:37
  TRACK 87 AUDIO
    TITLE "2:cjc091_1612"
    INDEX 01 01:55:44
  TRACK 88 AUDIO
    TITLE "0:"
    INDEX 01 01:57:04
  TRACK 89 AUDIO
    TITLE "3:cjc091_1613"
    INDEX 01 01:57:15
  TRACK 90 AUDIO
    TITLE "0:"
    INDEX 01 01:58:60
  TRACK 91 AUDIO
    TITLE "4:cjc091_1614"
    INDEX 01 01:59:06
  TRACK 92 AUDIO
    TITLE "0:"
    INDEX 01 02:03:59
